<svg width="512" height="512" viewBox="0 0 512 512" xmlns="http://www.w3.org/2000/svg">
  <!-- Pure white Stoodioz logo - simple music/S design -->
  <path d="M256 64C150 64 64 150 64 256s86 192 192 192 192-86 192-192S362 64 256 64zm0 352c-88.4 0-160-71.6-160-160S167.6 96 256 96s160 71.6 160 160-71.6 160-160 160z" fill="white"/>
  <path d="M256 128c-70.7 0-128 57.3-128 128s57.3 128 128 128 128-57.3 128-128-57.3-128-128-128zm0 224c-53 0-96-43-96-96s43-96 96-96 96 43 96 96-43 96-96 96z" fill="white"/>
  <!-- Music note / S shape -->
  <path d="M200 200c0-20 16-36 36-36h40c20 0 36 16 36 36v112c0 20-16 36-36 36h-40c-20 0-36-16-36-36V200zm32 0v112c0 4 4 8 8 8h40c4 0 8-4 8-8V200c0-4-4-8-8-8h-40c-4 0-8 4-8 8z" fill="white"/>
  <path d="M240 180c-8 0-16 8-16 16v120c0 8 8 16 16 16h32c8 0 16-8 16-16V196c0-8-8-16-16-16h-32z" fill="white"/>
</svg>
